<svg xmlns="http://www.w3.org/2000/svg" width="576.007" height="468.006" viewBox="352 85.997 576.007 468.006"><path d="M352 140c0-29.83 24.173-54.003 54.003-54.003h468c29.83 0 54.004 24.172 54.004 54.003s-24.173 54.003-54.004 54.003h-468C376.173 193.997 352 169.83 352 140zm521.997 125.997H406.003C376.173 265.997 352 290.17 352 320c0 29.83 24.173 54.003 54.003 54.003h468C903.827 374.003 928 349.83 928 320c0-29.83-24.173-54.003-54.003-54.003zm0 180.006H406.003C376.173 446.003 352 470.17 352 500s24.173 54.003 54.003 54.003h468c29.83 0 54.004-24.173 54.004-54.003s-24.18-53.997-54.01-53.997z"/></svg>